<?xml version="1.0" encoding="UTF-8" standalone="no"?>
<svg
   xmlns:dc="http://purl.org/dc/elements/1.1/"
   xmlns:cc="http://creativecommons.org/ns#"
   xmlns:rdf="http://www.w3.org/1999/02/22-rdf-syntax-ns#"
   xmlns:svg="http://www.w3.org/2000/svg"
   xmlns="http://www.w3.org/2000/svg"
   xmlns:sodipodi="http://sodipodi.sourceforge.net/DTD/sodipodi-0.dtd"
   xmlns:inkscape="http://www.inkscape.org/namespaces/inkscape"
   version="1.1"
   x="0px"
   y="0px"
   viewBox="0 0 59.999999 60"
   id="svg2"
   inkscape:version="0.91 r13725"
   sodipodi:docname="log_file.svg"
   width="60"
   height="60"
   inkscape:export-filename="/Users/Samuel/workspace/log-enhancer/extension/icons/log_file_color_48.png"
   inkscape:export-xdpi="72"
   inkscape:export-ydpi="72">
  <metadata
     id="metadata16">
    <rdf:RDF>
      <cc:Work
         rdf:about="">
        <dc:format>image/svg+xml</dc:format>
        <dc:type
           rdf:resource="http://purl.org/dc/dcmitype/StillImage" />
        <dc:title></dc:title>
      </cc:Work>
    </rdf:RDF>
  </metadata>
  <defs
     id="defs14" />
  <sodipodi:namedview
     pagecolor="#ffffff"
     bordercolor="#666666"
     borderopacity="1"
     objecttolerance="10"
     gridtolerance="10"
     guidetolerance="10"
     inkscape:pageopacity="0"
     inkscape:pageshadow="2"
     inkscape:window-width="1440"
     inkscape:window-height="841"
     id="namedview12"
     showgrid="false"
     fit-margin-top="0"
     fit-margin-left="0"
     fit-margin-right="0"
     fit-margin-bottom="0"
     inkscape:zoom="7.5520001"
     inkscape:cx="47.283597"
     inkscape:cy="35.310856"
     inkscape:window-x="0"
     inkscape:window-y="46"
     inkscape:window-maximized="0"
     inkscape:current-layer="g4" />
  <g
     transform="translate(-25.060074,-974.90059)"
     id="g4">
    <path
       style="color:#000000;text-indent:0;text-transform:none;direction:ltr;block-progression:tb;baseline-shift:baseline;display:inline;overflow:visible;visibility:visible;fill:#000000;fill-opacity:1;stroke:none;marker:none;enable-background:accumulate"
       d="m 60.185374,974.86956 a 1.0001,1.0001 0 0 0 -0.094,0.031 l -23.0313,0 c -2.2109,0 -4,1.8203 -4,4.0312 l 0,48.40624 c 0,2.2123 1.7891,4.0313 4,4.0313 l 2.0313,0 0,0.5313 c 0,1.6413 1.3585,3 3,3 l 36.4374,0 c 1.6415,0 3,-1.3587 3,-3 l 0,-13.2813 c 0,-1.6415 -1.3585,-2.9687 -3,-2.9687 l -2.625,0 0,-25.68764 a 1.0001,1.0001 0 0 0 0,-0.062 1.0001,1.0001 0 0 0 0,-0.031 1.0001,1.0001 0 0 0 -0.031,-0.1875 1.0001,1.0001 0 0 0 0,-0.031 1.0001,1.0001 0 0 0 0,-0.063 1.0001,1.0001 0 0 0 -0.031,-0.031 1.0001,1.0001 0 0 0 0,-0.031 1.0001,1.0001 0 0 0 -0.031,-0.063 1.0001,1.0001 0 0 0 -0.031,-0.062 1.0001,1.0001 0 0 0 -0.031,0 1.0001,1.0001 0 0 0 -0.031,-0.063 1.0001,1.0001 0 0 0 -0.031,-0.031 1.0001,1.0001 0 0 0 -0.031,-0.062 1.0001,1.0001 0 0 0 -0.031,-0.031 1.0001,1.0001 0 0 0 -0.031,-0.031 l -14.5938,-14.0312 a 1.0001,1.0001 0 0 0 -0.062,-0.063 1.0001,1.0001 0 0 0 -0.6563,-0.2187 1.0001,1.0001 0 0 0 -0.094,0 z"
       id="path3368"
       inkscape:connector-curvature="0" />
    <path
       style="color:#000000;text-indent:0;text-transform:none;direction:ltr;block-progression:tb;baseline-shift:baseline;display:inline;overflow:visible;visibility:visible;fill:#ffffff;fill-opacity:1;stroke:none;marker:none;enable-background:accumulate"
       d="m 37.060374,976.90086 22.25,0 0,9.9687 c 0,2.2116 1.8207,4.0313 4.0313,4.0313 l 10.5624,0 0,24.75004 -31.8124,0 c -1.6415,0 -3,1.3272 -3,2.9687 l 0,10.75 -2.0313,0 c -1.129,0 -2,-0.8993 -2,-2.0313 l 0,-48.40624 c 0,-1.1291 0.871,-2.0312 2,-2.0312 z"
       id="path3366"
       inkscape:connector-curvature="0" />
    <path
       style="color:#000000;text-indent:0;text-transform:none;direction:ltr;block-progression:tb;baseline-shift:baseline;display:inline;overflow:visible;visibility:visible;fill:#ffffff;fill-opacity:1;stroke:none;marker:none;enable-background:accumulate"
       d="m 61.310374,978.24456 11.0625,10.5937 0.062,0.063 -9.0937,0 c -1.1296,0 -2.0313,-0.9009 -2.0313,-2.0313 l 0,-8.625 z"
       id="path3364"
       inkscape:connector-curvature="0" />
    <path
       style="color:#000000;text-indent:0;text-transform:none;direction:ltr;block-progression:tb;baseline-shift:baseline;display:inline;overflow:visible;visibility:visible;fill:#0000ff;fill-opacity:1;stroke:none;marker:none;enable-background:accumulate"
       d="m 38.560374,993.18206 a 1.0059609,1.0059609 0 1 0 0.2187,2 l 31.5,0 a 1.0001,1.0001 0 1 0 0,-2 l -31.5,0 a 1.0001,1.0001 0 0 0 -0.2187,0 z"
       id="path3362"
       inkscape:connector-curvature="0" />
    <path
       style="color:#000000;text-indent:0;text-transform:none;direction:ltr;block-progression:tb;baseline-shift:baseline;display:inline;overflow:visible;visibility:visible;fill:#00ff00;fill-opacity:1;stroke:none;marker:none;enable-background:accumulate"
       d="m 38.560374,999.08826 a 1.0059808,1.0059808 0 0 0 0.2187,2.00004 l 31.5,0 a 1.0001,1.0001 0 1 0 0,-2.00004 l -31.5,0 a 1.0001,1.0001 0 0 0 -0.2187,0 z"
       id="path3360"
       inkscape:connector-curvature="0" />
    <path
       style="color:#000000;text-indent:0;text-transform:none;direction:ltr;block-progression:tb;baseline-shift:baseline;display:inline;overflow:visible;visibility:visible;fill:#ff0000;fill-opacity:1;stroke:none;marker:none;enable-background:accumulate"
       d="m 38.560374,1004.9946 a 1.0059609,1.0059609 0 1 0 0.2187,2 l 31.5,0 a 1.0001,1.0001 0 1 0 0,-2 l -31.5,0 a 1.0001,1.0001 0 0 0 -0.2187,0 z"
       id="path3358"
       inkscape:connector-curvature="0" />
    <path
       style="color:#000000;text-indent:0;text-transform:none;direction:ltr;block-progression:tb;baseline-shift:baseline;display:inline;overflow:visible;visibility:visible;fill:#000000;fill-opacity:1;stroke:none;marker:none;enable-background:accumulate"
       d="m 38.560374,1010.8696 a 1.0059609,1.0059609 0 1 0 0.2187,2 l 16.9688,0 a 1.0001,1.0001 0 1 0 0,-2 l -16.9688,0 a 1.0001,1.0001 0 0 0 -0.125,0 1.0019512,1.0019512 0 0 0 -0.094,0 z"
       id="path3356"
       inkscape:connector-curvature="0" />
    <path
       style="color:#000000;text-indent:0;text-transform:none;direction:ltr;block-progression:tb;baseline-shift:baseline;display:inline;overflow:visible;visibility:visible;fill:#ffffff;fill-opacity:1;stroke:none;marker:none;enable-background:accumulate"
       d="m 42.091674,1017.6509 36.4374,0 c 0.5681,0 1,0.4006 1,0.9687 l 0,13.2813 c 0,0.568 -0.4319,1 -1,1 l -36.4374,0 c -0.5681,0 -1,-0.432 -1,-1 l 0,-13.2813 c 0,-0.5681 0.4319,-0.9687 1,-0.9687 z"
       id="path3354"
       inkscape:connector-curvature="0" />
    <path
       style="color:#000000;text-indent:0;text-transform:none;direction:ltr;block-progression:tb;baseline-shift:baseline;display:inline;overflow:visible;visibility:visible;fill:#000000;fill-opacity:1;stroke:none;marker:none;enable-background:accumulate"
       d="m 58.591324,1021.3382 c -0.6258,0 -1.17735,0.1096 -1.65625,0.3125 -0.36,0.1503 -0.6976,0.3765 -1,0.6875 -0.3023,0.3112 -0.54405,0.6398 -0.71875,1.0313 -0.2342,0.5313 -0.34375,1.217 -0.34375,2 0,1.2235 0.35665,2.1776 1.03125,2.875 0.6746,0.6974 1.57575,1.0312 2.71875,1.0312 1.1291,0 2.0129,-0.3303 2.6875,-1.0312 0.6747,-0.7008 1.03125,-1.6965 1.03125,-2.9375 0,-1.2514 -0.35135,-2.2037 -1.03125,-2.9063 -0.6799,-0.7027 -1.58635,-1.0625 -2.71875,-1.0625 z m 0.03125,1.3125 c 0.6397,0 1.14515,0.2229 1.53125,0.6563 0.3863,0.4334 0.5625,1.0877 0.5625,1.9687 0,0.8913 -0.19705,1.5543 -0.59375,2 -0.3967,0.4456 -0.8813,0.6875 -1.5,0.6875 -0.6187,0 -1.12925,-0.2383 -1.53125,-0.6875 -0.4021,-0.4493 -0.625,-1.0983 -0.625,-1.9687 0,-0.8844 0.20225,-1.5613 0.59375,-2 0.3915,-0.4388 0.9228,-0.6563 1.5625,-0.6563 z"
       id="path3352"
       inkscape:connector-curvature="0" />
    <path
       style="color:#000000;text-indent:0;text-transform:none;direction:ltr;block-progression:tb;baseline-shift:baseline;display:inline;overflow:visible;visibility:visible;fill:#000000;fill-opacity:1;stroke:none;marker:none;enable-background:accumulate"
       d="m 67.091674,1021.3383 c -0.7341,0 -1.351,0.1198 -1.8438,0.375 -0.6467,0.3321 -1.1332,0.8153 -1.4688,1.4376 -0.3355,0.6222 -0.5,1.3244 -0.5,2.125 0,0.7376 0.137,1.4349 0.4376,2.0624 0.3006,0.6275 0.7459,1.1003 1.3437,1.4376 0.5977,0.3374 1.321,0.5 2.125,0.5 0.6327,0 1.258,-0.1044 1.875,-0.3438 0.617,-0.2395 1.0811,-0.5292 1.4063,-0.8438 l 0,-3.0624 -3.3438,0 0,1.3124 1.7812,0 0,0.9688 c -0.2342,0.1818 -0.5169,0.3411 -0.8437,0.4688 -0.3269,0.1273 -0.675,0.1874 -1,0.1874 -0.6572,0 -1.1883,-0.2312 -1.5937,-0.6874 -0.4055,-0.4562 -0.5938,-1.1502 -0.5938,-2.0626 0,-0.8459 0.1934,-1.4763 0.5938,-1.9062 0.4001,-0.43 0.9467,-0.6562 1.625,-0.6562 0.4474,0 0.8262,0.1253 1.125,0.3437 0.2988,0.2185 0.4853,0.4975 0.5937,0.875 l 1.5625,-0.2813 c -0.1539,-0.706 -0.4946,-1.2559 -1.0312,-1.6562 -0.5366,-0.4002 -1.2957,-0.5938 -2.25,-0.5938 z"
       id="path3350"
       inkscape:connector-curvature="0" />
    <path
       style="color:#000000;text-indent:0;text-transform:none;direction:ltr;block-progression:tb;baseline-shift:baseline;display:inline;overflow:visible;visibility:visible;fill:#000000;fill-opacity:1;stroke:none;marker:none;enable-background:accumulate"
       d="m 48.654074,1021.5259 0,7.625 5.4376,0 0,-1.2813 -3.875,0 0,-6.3437 -1.5626,0 z"
       id="path3348"
       inkscape:connector-curvature="0" />
    <path
       style="color:#000000;text-indent:0;text-transform:none;direction:ltr;block-progression:tb;baseline-shift:baseline;display:inline;overflow:visible;visibility:visible;fill:#000000;fill-opacity:1;stroke:none;marker:none;enable-background:accumulate"
       d="m 45.654074,1027.6821 0,1.4688 1.4688,0 0,-1.4688 -1.4688,0 z"
       id="path6"
       inkscape:connector-curvature="0" />
  </g>
</svg>
